<svg xmlns="http://www.w3.org/2000/svg" width="32" height="32" viewBox="0 0 32 32">
    <path fill="#d1d1d1" fill-rule="evenodd" d="M16 32C7.163 32 0 24.837 0 16S7.163 0 16 0s16 7.163 16 16-7.163 16-16 16zm-4.255-19.84c-.004.545-.01 1.09 0 1.634.5.145.76.64.757 1.135.063 1.498.007 3 .032 4.5.547.003 1.095.003 1.644-.002.007-1.498-.003-2.998.004-4.498.018-.867-.286-1.803-1.01-2.331-.405-.311-.921-.422-1.427-.438zm-3.73 3.824c.686-.322 1.548.262 1.475 1.023.064.782-.865 1.33-1.538.973-.81-.354-.77-1.7.063-1.996zM5.76 19.415c.557.023 1.116.017 1.673.012-.003-.125-.006-.375-.01-.5.695.874 2.085.833 2.888.137 1.174-.983 1.212-2.992.116-4.047-.793-.802-2.212-.836-3.015-.029.03-.882.002-1.767.021-2.65-.547-.006-1.094 0-1.643-.016-.058 2.362-.005 4.729-.03 7.093zm12.024-3.46c.673-.258 1.483.329 1.394 1.058.09.804-.91 1.344-1.576.943-.802-.396-.686-1.76.182-2.001zm-.636-1.421c-1.459.35-2.25 2.073-1.677 3.433.676 1.737 3.147 2.081 4.54 1.025 1.187-.875 1.266-2.83.198-3.827-.8-.764-2.026-.923-3.061-.631zm7.026 1.404c.695-.326 1.554.31 1.465 1.069.036.798-.93 1.284-1.592.909-.769-.387-.693-1.696.127-1.978zm-1.296-1.142c-1.31.903-1.485 3.046-.329 4.139.832.787 2.223.765 3.05-.02-.033.44-.033.944-.372 1.272-.305.289-.757.27-1.147.287.001.51.003 1.02.001 1.53.737.032 1.541-.019 2.151-.482.703-.518 1-1.423 1.007-2.267.004-1.563 0-3.124 0-4.687a88.056 88.056 0 0 0-1.66 0c0 .114 0 .341.003.455-.658-.796-1.904-.796-2.704-.227z"/>
</svg>
