<?xml version="1.0" encoding="UTF-8"?>
<svg width="140px" height="24px" viewBox="0 0 140 24" version="1.1" xmlns="http://www.w3.org/2000/svg" xmlns:xlink="http://www.w3.org/1999/xlink">
    <!-- Generator: sketchtool 53 (72520) - https://sketchapp.com -->
    <title>8EB566DF-9524-4A42-8160-F3AA7DCEE2D8</title>
    <desc>Created with sketchtool.</desc>
    <g id="Symbols" stroke="none" stroke-width="1" fill="none" fill-rule="evenodd">
        <g id="logo/default">
            <path d="M3.32114286,9.818 C3.63257143,9.726 3.97542857,9.62085714 4.35085714,9.50142857 C4.72514286,9.38257143 5.14685714,9.27342857 5.61314286,9.17228571 C6.08,9.07171429 6.60114286,8.99 7.17714286,8.92542857 C7.75428571,8.86142857 8.40742857,8.83 9.14057143,8.83 C11.2988571,8.83 12.7817143,9.45114286 13.5874286,10.6962857 C14.392,11.9402857 14.5285714,13.6425714 13.9982857,15.8014286 L12.132,23.5957143 L8.04228571,23.5957143 L9.85371429,15.9654286 C9.96342857,15.4905714 10.0497143,15.0282857 10.1148571,14.5797143 C10.1782857,14.1317143 10.1737143,13.738 10.1,13.3991429 C10.0268571,13.0614286 9.85771429,12.7865714 9.59314286,12.5762857 C9.32742857,12.3654286 8.92,12.2602857 8.372,12.2602857 C7.84,12.2602857 7.30057143,12.3157143 6.75257143,12.4248571 L4.09028571,23.5957143 L-6.21724894e-15,23.5957143 L3.32114286,9.818 Z" id="Fill-1" fill="#2581FF"></path>
            <path d="M23.2753714,12.0136 C22.3416571,12.0136 21.5228,12.3473143 20.8182286,13.0153143 C20.1136571,13.6827429 19.6513714,14.5661714 19.4319429,15.6644571 C20.5662286,15.6278857 21.4810857,15.5313143 22.1770857,15.3758857 C22.8719429,15.2204571 23.4119429,15.0318857 23.7965143,14.8130286 C24.1805143,14.5930286 24.4370857,14.3558857 24.5645143,14.0987429 C24.6925143,13.8433143 24.7576571,13.5873143 24.7576571,13.3307429 C24.7576571,12.4524571 24.2633714,12.0136 23.2753714,12.0136 M15.2873714,17.9421714 C15.2873714,16.7713143 15.4930857,15.6364571 15.9056571,14.5381714 C16.3170857,13.4410286 16.8970857,12.4661714 17.6479429,11.6147429 C18.3976571,10.7644571 19.3090857,10.0787429 20.3793714,9.55645714 C21.4496571,9.03531429 22.6342286,8.77474286 23.9330857,8.77474286 C24.5736571,8.77474286 25.1685143,8.86674286 25.7176571,9.04902857 C26.2668,9.23188571 26.7473714,9.4976 27.1588,9.84502857 C27.5708,10.1924571 27.8902286,10.6181714 28.1199429,11.1216 C28.3485143,11.6244571 28.4622286,12.1970286 28.4622286,12.8364571 C28.4622286,13.8616 28.2336571,14.7307429 27.7759429,15.4438857 C27.3188,16.1581714 26.6828,16.7393143 25.8685143,17.1873143 C25.0548,17.6358857 24.0890857,17.9598857 22.9730857,18.1616 C21.8570857,18.3633143 20.6399429,18.4638857 19.3222286,18.4638857 C19.4508,19.2318857 19.7296571,19.7764571 20.1599429,20.0970286 C20.5896571,20.4170286 21.2708,20.5770286 22.2039429,20.5770286 C22.7896571,20.5770286 23.3839429,20.5273143 23.9885143,20.4256 C24.5925143,20.3256 25.1588,20.1747429 25.6908,19.9730286 L25.9919429,23.1850286 C25.4793714,23.3856 24.8262286,23.5690286 24.0296571,23.7330286 C23.2336571,23.8981714 22.3690857,23.9798857 21.4359429,23.9798857 C20.3010857,23.9798857 19.3456571,23.8198857 18.5679429,23.5004571 C17.7896571,23.1804571 17.1588,22.7456 16.6730857,22.1964571 C16.1890857,21.6473143 15.8365143,21.0067429 15.6165143,20.2753143 C15.3976571,19.5438857 15.2873714,18.7656 15.2873714,17.9421714" id="Fill-4" fill="#2581FF"></path>
            <path d="M33.7056,9.15891429 L35.7918857,13.6594857 C36.4130286,12.8914857 37.0038857,12.1417714 37.5616,11.4092 C38.1198857,10.6777714 38.6553143,9.92691429 39.1678857,9.15891429 L43.2576,9.15891429 C42.4884571,10.2572 41.6467429,11.3960571 40.7318857,12.5760571 C39.8170286,13.7560571 38.7558857,14.9869143 37.5484571,16.2674857 C38.2798857,17.6394857 38.9021714,18.9080571 39.4147429,20.0686286 C39.9273143,21.2314857 40.3844571,22.4069143 40.7873143,23.5960571 L36.7518857,23.5960571 C36.4233143,22.6994857 36.0941714,21.8760571 35.7638857,21.1252 C35.4347429,20.3754857 35.1147429,19.6806286 34.8038857,19.0400571 L30.8238857,23.5960571 L26.5421714,23.5960571 L33.1010286,16.2406286 L29.5604571,9.15891429 L33.7056,9.15891429 Z" id="Fill-6" fill="#2581FF"></path>
            <path d="M45.5901143,5.56297143 L49.8449714,4.90411429 L48.8015429,9.15897143 L53.3581143,9.15897143 L52.5341143,12.5075429 L48.0061143,12.5075429 L46.7981143,17.5578286 C46.6884,17.9784 46.6198286,18.3721143 46.5918286,18.7378286 C46.5649714,19.1046857 46.6101143,19.4201143 46.7289714,19.6846857 C46.8484,19.9498286 47.0541143,20.1566857 47.3461143,20.3024 C47.6386857,20.4486857 48.0421143,20.5224 48.5546857,20.5224 C48.9935429,20.5224 49.4192571,20.4806857 49.8306857,20.3984 C50.2426857,20.3155429 50.6586857,20.2018286 51.0792571,20.0549714 L51.3815429,23.1846857 C50.8324,23.3852571 50.2381143,23.5595429 49.5981143,23.7058286 C48.9575429,23.8526857 48.1975429,23.9258286 47.3192571,23.9258286 C46.0569714,23.9258286 45.0781143,23.7378286 44.3826857,23.3624 C43.6872571,22.9881143 43.1929714,22.4755429 42.9004,21.8258286 C42.6066857,21.1766857 42.4786857,20.4309714 42.5164,19.5892571 C42.5524,18.7475429 42.6804,17.8601143 42.9004,16.9264 L45.5901143,5.56297143 Z" id="Fill-8" fill="#2581FF"></path>
            <path d="M68.5013714,9.15891429 L66.5528,17.3657714 C66.2962286,18.4086286 66.2242286,19.4560571 66.3328,20.5086286 C66.4425143,21.5606286 66.6533714,22.4989143 66.9653714,23.3217714 L63.3139429,23.8429143 C63.1122286,23.4406286 62.9202286,22.9926286 62.7379429,22.4989143 C62.2248,22.9012 61.6488,23.2400571 61.0088,23.5137714 C60.3682286,23.7880571 59.6539429,23.9257714 58.8676571,23.9257714 C57.7870857,23.9257714 56.9139429,23.7292 56.2465143,23.3354857 C55.5785143,22.9429143 55.0796571,22.4206286 54.7505143,21.7709143 C54.4208,21.1217714 54.2425143,20.3754857 54.2145143,19.5337714 C54.1876571,18.6926286 54.2830857,17.8314857 54.5030857,16.9537714 L56.3699429,9.15891429 L60.4596571,9.15891429 L58.6202286,16.8983429 C58.5288,17.3017714 58.4510857,17.7132 58.3876571,18.1337714 C58.3230857,18.5554857 58.3185143,18.9434857 58.3728,19.3006286 C58.4282286,19.6577714 58.5699429,19.9497714 58.7990857,20.1789143 C59.0276571,20.4086286 59.3893714,20.5223429 59.8836571,20.5223429 C60.3042286,20.5223429 60.6933714,20.4440571 61.0493714,20.2886286 C61.4065143,20.1332 61.7853714,19.8629143 62.1888,19.4789143 C62.2248,19.0217714 62.2842286,18.5417714 62.3676571,18.0383429 C62.4493714,17.5354857 62.5368,17.0732 62.6282286,16.6526286 L64.4116571,9.15891429 L68.5013714,9.15891429 Z" id="Fill-10" fill="#7175FF"></path>
            <path d="M71.5477143,9.818 C71.8597143,9.726 72.2025714,9.62085714 72.578,9.50142857 C72.9522857,9.38257143 73.3734286,9.27342857 73.8402857,9.17228571 C74.3071429,9.07171429 74.8282857,8.99 75.4042857,8.92542857 C75.9814286,8.86142857 76.6345714,8.83 77.3677143,8.83 C79.526,8.83 81.0082857,9.45114286 81.814,10.6962857 C82.6191429,11.9402857 82.7557143,13.6425714 82.2254286,15.8014286 L80.3591429,23.5957143 L76.2694286,23.5957143 L78.0808571,15.9654286 C78.1905714,15.4905714 78.2768571,15.0282857 78.342,14.5797143 C78.4054286,14.1317143 78.4008571,13.738 78.3271429,13.3991429 C78.254,13.0614286 78.0848571,12.7865714 77.8202857,12.5762857 C77.5545714,12.3654286 77.1471429,12.2602857 76.5991429,12.2602857 C76.0671429,12.2602857 75.5277143,12.3157143 74.9797143,12.4248571 L72.3174286,23.5957143 L68.2271429,23.5957143 L71.5477143,9.818 Z" id="Fill-12" fill="#7175FF"></path>
            <path d="M88.7296,7.40251429 C88.1621714,7.40251429 87.6496,7.23337143 87.1924571,6.89394286 C86.7347429,6.55622857 86.5061714,6.03908571 86.5061714,5.34365714 C86.5061714,4.95908571 86.5844571,4.59794286 86.7398857,4.25965714 C86.8953143,3.9208 87.1004571,3.62822857 87.3576,3.3808 C87.6130286,3.13394286 87.9101714,2.93737143 88.2490286,2.79051429 C88.5878857,2.6448 88.9496,2.57108571 89.3341714,2.57108571 C89.9004571,2.57108571 90.4124571,2.74022857 90.8713143,3.07908571 C91.3278857,3.41794286 91.5570286,3.93508571 91.5570286,4.62994286 C91.5570286,5.01394286 91.4793143,5.37565714 91.3238857,5.71337143 C91.1684571,6.05337143 90.9616,6.34537143 90.7061714,6.5928 C90.4496,6.83965714 90.1518857,7.0368 89.8141714,7.18251429 C89.4747429,7.32937143 89.1136,7.40251429 88.7296,7.40251429 L88.7296,7.40251429 Z M86.7530286,23.5956571 L82.6913143,23.5956571 L86.1221714,9.15908571 L90.2118857,9.15908571 L86.7530286,23.5956571 Z" id="Fill-14" fill="#7175FF"></path>
            <path d="M90.1838857,17.8316571 C90.1838857,16.5876571 90.3861714,15.4168 90.7884571,14.3190857 C91.1907429,13.2208 91.7667429,12.2602286 92.5176,11.4373714 C93.2673143,10.6133714 94.1770286,9.9648 95.2484571,9.48765714 C96.3187429,9.01222857 97.5124571,8.77451429 98.8301714,8.77451429 C99.6541714,8.77451429 100.390171,8.8528 101.039886,9.00765714 C101.6896,9.16365714 102.278743,9.36937143 102.810171,9.6248 L101.410171,12.8093714 C101.043886,12.6630857 100.664457,12.5305143 100.270743,12.4110857 C99.8781714,12.2922286 99.3976,12.2328 98.8301714,12.2328 C97.4576,12.2328 96.3776,12.6945143 95.5913143,13.6190857 C94.8044571,14.5430857 94.4107429,15.8013714 94.4107429,17.3928 C94.4107429,18.3259429 94.6124571,19.0813714 95.0147429,19.6573714 C95.4176,20.2339429 96.1587429,20.5219429 97.2387429,20.5219429 C97.7678857,20.5219429 98.2810286,20.4670857 98.7747429,20.3573714 C99.2690286,20.2470857 99.7078857,20.1099429 100.093029,19.9459429 L100.394171,23.2122286 C99.8821714,23.4139429 99.3187429,23.5922286 98.7061714,23.7476571 C98.0936,23.9030857 97.3473143,23.9802286 96.4696,23.9802286 C95.3347429,23.9802286 94.3741714,23.8162286 93.5878857,23.4859429 C92.8004571,23.1568 92.1507429,22.7139429 91.6393143,22.1550857 C91.1267429,21.5973714 90.7564571,20.9430857 90.5278857,20.1922286 C90.2976,19.4425143 90.1838857,18.6556571 90.1838857,17.8316571" id="Fill-17" fill="#7175FF"></path>
            <path d="M109.316114,12.2326286 C108.711543,12.2326286 108.181257,12.4074857 107.724114,12.7549143 C107.2664,13.1017714 106.8824,13.5412 106.571543,14.0720571 C106.259543,14.6023429 106.0264,15.1834857 105.870971,15.8149143 C105.715543,16.4463429 105.637829,17.0452 105.637829,17.6126286 C105.637829,18.5457714 105.783543,19.2640571 106.077257,19.7674857 C106.369829,20.2703429 106.900114,20.5223429 107.668686,20.5223429 C108.273257,20.5223429 108.804114,20.3486286 109.260686,20.0000571 C109.7184,19.6526286 110.1024,19.2137714 110.413257,18.6829143 C110.725257,18.1520571 110.957829,17.5709143 111.113829,16.9400571 C111.269257,16.3086286 111.346971,15.7092 111.346971,15.1423429 C111.346971,14.2086286 111.200114,13.4909143 110.907543,12.9880571 C110.614971,12.4840571 110.084686,12.2326286 109.316114,12.2326286 M107.284686,23.9800571 C106.314971,23.9800571 105.473257,23.8332 104.758971,23.5412 C104.045829,23.2486286 103.455543,22.8377714 102.989257,22.3057714 C102.521829,21.7760571 102.169829,21.1486286 101.932686,20.4257714 C101.693829,19.7029143 101.575543,18.9029143 101.575543,18.0246286 C101.575543,16.9263429 101.7544,15.8280571 102.111543,14.7309143 C102.468114,13.6326286 102.993257,12.6446286 103.688686,11.7663429 C104.384686,10.8880571 105.2344,10.1703429 106.241257,9.61148571 C107.248114,9.05377143 108.400114,8.77491429 109.700114,8.77491429 C110.651543,8.77491429 111.488686,8.92177143 112.210971,9.21377143 C112.933829,9.50634286 113.529257,9.91834286 113.995543,10.4492 C114.462971,10.9800571 114.813829,11.6063429 115.052114,12.3292 C115.289829,13.0520571 115.409257,13.8514857 115.409257,14.7309143 C115.409257,15.8280571 115.2344,16.9263429 114.887543,18.0246286 C114.540114,19.1223429 114.027543,20.1103429 113.350971,20.9886286 C112.673257,21.8663429 111.827543,22.5857714 110.811543,23.1434857 C109.795543,23.7012 108.620114,23.9800571 107.284686,23.9800571" id="Fill-20" fill="#7175FF"></path>
            <path d="M126.441657,12.6714857 C126.075943,12.5806286 125.715371,12.4937714 125.358229,12.4109143 C125.001086,12.3292 124.475371,12.2874857 123.780514,12.2874857 C123.523943,12.2874857 123.239371,12.3109143 122.929086,12.3560571 C122.617657,12.4023429 122.361657,12.4526286 122.161086,12.5074857 L119.4988,23.5960571 L115.407943,23.5960571 L118.702229,9.92691429 C119.488514,9.67148571 120.371943,9.4292 121.351371,9.20005714 C122.330229,8.97148571 123.431371,8.85662857 124.658229,8.85662857 C125.115943,8.85662857 125.623371,8.89834286 126.181086,8.98062857 C126.739371,9.06234286 127.229657,9.19548571 127.650229,9.37777143 L126.441657,12.6714857 Z" id="Fill-22" fill="#7175FF"></path>
            <path d="M128.885314,9.818 C129.197314,9.726 129.540171,9.62085714 129.915029,9.50142857 C130.289314,9.38257143 130.711029,9.27342857 131.177314,9.17228571 C131.644171,9.07171429 132.165314,8.99 132.741886,8.92542857 C133.319029,8.86142857 133.972171,8.83 134.704743,8.83 C136.8636,8.83 138.345886,9.45114286 139.1516,10.6962857 C139.956171,11.9402857 140.093314,13.6425714 139.563029,15.8014286 L137.696171,23.5957143 L133.606457,23.5957143 L135.417886,15.9654286 C135.5276,15.4905714 135.614457,15.0282857 135.6796,14.5797143 C135.743029,14.1317143 135.737886,13.738 135.664743,13.3991429 C135.591029,13.0614286 135.422457,12.7865714 135.157314,12.5762857 C134.892171,12.3654286 134.484743,12.2602857 133.936743,12.2602857 C133.404743,12.2602857 132.865314,12.3157143 132.317314,12.4248571 L129.654457,23.5957143 L125.564171,23.5957143 L128.885314,9.818 Z" id="Fill-24" fill="#7175FF"></path>
        </g>
    </g>
</svg>